# xmcd
#
# Track frame offsets:
#	150
#	37183
#	60072
#	102858
#	122578
#	162243
#	186205
#
# Disc length: 2657 seconds
#
# Revision: 1
# Processed by: cddbd v1.4PL0 Copyright (c) Steve Scherf et al.
# Submitted via: audiograbber 1.80
#
DISCID=520a5f07
DTITLE=Margie Evans - Mistreated Woman-LP
DYEAR=1900
DGENRE=
TTITLE0=mistreated woman
TTITLE1=it's a shame
TTITLE2=your love is painfull
TTITLE3=two lovers in one
TTITLE4=blue blue blues
TTITLE5=don't throw no stones at me
TTITLE6=god bless the child
EXTD=
EXTT0=
EXTT1=
EXTT2=
EXTT3=
EXTT4=
EXTT5=
EXTT6=
PLAYORDER=
